<?xml version="1.0" encoding="utf-8"?>
<!-- Generator: Adobe Illustrator 25.1.0, SVG Export Plug-In . SVG Version: 6.00 Build 0)  -->
<svg version="1.1" id="레이어_1" xmlns="http://www.w3.org/2000/svg" xmlns:xlink="http://www.w3.org/1999/xlink" x="0px"
	 y="0px" viewBox="0 0 300 300" style="enable-background:new 0 0 300 300;" xml:space="preserve">
<g>
	<path d="M147.07,108.45l-4.71-12.17c-1.07-2.22-1.97-3.87-2.7-4.94c-0.73-1.07-2.28-1.8-4.65-2.18l-3.56-0.46v-1.84h50.53v1.84
		h-1.61c-0.54,0-1.53,0.13-2.99,0.4c-1.46,0.27-2.68,0.59-3.68,0.98c-1,0.38-1.49,1.53-1.49,3.45c0,1.76,0.52,4.21,1.55,7.35
		c1.03,3.14,2.24,6.64,3.62,10.51c1.38,3.87,3.18,8.86,5.4,14.99c2.22,6.13,3.83,10.57,4.82,13.32c0.99-2.6,2.2-5.74,3.62-9.42
		c1.42-3.68,3.37-8.86,5.86-15.56c2.49-6.7,4.12-11.29,4.88-13.78c0.77-2.49,1.15-4.65,1.15-6.49c0-1.76-0.46-3.02-1.38-3.79
		c-0.92-0.76-2.03-1.24-3.33-1.44c-1.3-0.19-2.53-0.3-3.67-0.34c-1.15-0.04-2.22-0.1-3.22-0.17v-1.84h29.63v1.84l-5.06,0.57
		c-2.45,0.38-4.37,1.07-5.75,2.07c-1.38,1-2.61,2.76-3.68,5.28l-3.45,8.84l-24.6,65.58h-9.19l-20.92-59.26l-21.95,59.26h-9.19
		l-23.45-65.81l-3.56-8.96c-1.15-2.45-2.2-4.19-3.16-5.23c-0.96-1.03-2.39-1.67-4.31-1.9l-4.02-0.46v-1.84h49.61v1.84l-3.67,0.34
		c-1.76,0.23-3.01,0.59-3.73,1.09c-0.73,0.5-1.09,1.44-1.09,2.81c0,1.69,0.63,4.38,1.89,8.1c1.26,3.71,2.85,8.21,4.77,13.49
		c1.91,5.28,3.64,9.95,5.17,14.01c1.53,4.06,2.79,7.43,3.79,10.11L147.07,108.45z"/>
</g>
<rect x="78.85" y="191.31" width="142.29" height="14.36"/>
</svg>
